<svg id="visual" viewBox="0 0 960 540" width="960" height="540" xmlns="http://www.w3.org/2000/svg" xmlns:xlink="http://www.w3.org/1999/xlink" version="1.1"><rect x="0" y="0" width="960" height="540" fill="#0e6dfd"></rect><defs><linearGradient id="grad1_0" x1="43.8%" y1="100%" x2="100%" y2="0%"><stop offset="14.444444444444446%" stop-color="#05bff3" stop-opacity="1"></stop><stop offset="85.55555555555554%" stop-color="#05bff3" stop-opacity="1"></stop></linearGradient></defs><defs><linearGradient id="grad1_1" x1="43.8%" y1="100%" x2="100%" y2="0%"><stop offset="14.444444444444446%" stop-color="#05bff3" stop-opacity="1"></stop><stop offset="85.55555555555554%" stop-color="#0e6dfd" stop-opacity="1"></stop></linearGradient></defs><defs><linearGradient id="grad2_0" x1="0%" y1="100%" x2="56.3%" y2="0%"><stop offset="14.444444444444446%" stop-color="#05bff3" stop-opacity="1"></stop><stop offset="85.55555555555554%" stop-color="#05bff3" stop-opacity="1"></stop></linearGradient></defs><defs><linearGradient id="grad2_1" x1="0%" y1="100%" x2="56.3%" y2="0%"><stop offset="14.444444444444446%" stop-color="#0e6dfd" stop-opacity="1"></stop><stop offset="85.55555555555554%" stop-color="#05bff3" stop-opacity="1"></stop></linearGradient></defs><g transform="translate(960, 540)"><path d="M-351 0C-341.4 -44.9 -331.8 -89.7 -314.1 -130.1C-296.5 -170.5 -270.7 -206.5 -240.4 -240.4C-210.1 -274.3 -175.2 -306.2 -134.3 -324.3C-93.5 -342.4 -46.7 -346.7 0 -351L0 0Z" fill="#004dc6"></path><path d="M-175.5 0C-170.7 -22.4 -165.9 -44.9 -157.1 -65.1C-148.2 -85.3 -135.4 -103.2 -120.2 -120.2C-105 -137.2 -87.6 -153.1 -67.2 -162.1C-46.7 -171.2 -23.4 -173.3 0 -175.5L0 0Z" fill="#05bff3"></path></g><g transform="translate(0, 0)"><path d="M351 0C345.5 45.1 339.9 90.1 324.3 134.3C308.6 178.5 282.9 221.8 246.8 246.8C210.7 271.8 164.2 278.5 121.3 292.9C78.5 307.2 39.2 329.1 0 351L0 0Z" fill="#004dc6"></path><path d="M175.5 0C172.7 22.5 170 45.1 162.1 67.2C154.3 89.2 141.4 110.9 123.4 123.4C105.3 135.9 82.1 139.3 60.7 146.4C39.2 153.6 19.6 164.5 0 175.5L0 0Z" fill="#05bff3"></path></g></svg>