<svg xmlns="http://www.w3.org/2000/svg" viewBox="0 0 500 500"><g id="freepik--background-complete--inject-57"><rect y="382.4" width="500" height="0.25" style="fill:#ebebeb"></rect><rect x="416.78" y="398.49" width="33.12" height="0.25" style="fill:#ebebeb"></rect><rect x="267.86" y="390.76" width="27.36" height="0.25" style="fill:#ebebeb"></rect><rect x="396.59" y="389.21" width="19.19" height="0.25" style="fill:#ebebeb"></rect><rect x="52.46" y="390.89" width="17.15" height="0.25" style="fill:#ebebeb"></rect><rect x="78.51" y="390.89" width="32.38" height="0.25" style="fill:#ebebeb"></rect><rect x="164.78" y="395.11" width="60.37" height="0.25" style="fill:#ebebeb"></rect><path d="M237,337.8H43.91a5.71,5.71,0,0,1-5.7-5.71V60.66A5.71,5.71,0,0,1,43.91,55H237a5.71,5.71,0,0,1,5.71,5.71V332.09A5.71,5.71,0,0,1,237,337.8ZM43.91,55.2a5.46,5.46,0,0,0-5.45,5.46V332.09a5.46,5.46,0,0,0,5.45,5.46H237a5.47,5.47,0,0,0,5.46-5.46V60.66A5.47,5.47,0,0,0,237,55.2Z" style="fill:#ebebeb"></path><path d="M453.31,337.8H260.21a5.72,5.72,0,0,1-5.71-5.71V60.66A5.72,5.72,0,0,1,260.21,55h193.1A5.71,5.71,0,0,1,459,60.66V332.09A5.71,5.71,0,0,1,453.31,337.8ZM260.21,55.2a5.47,5.47,0,0,0-5.46,5.46V332.09a5.47,5.47,0,0,0,5.46,5.46h193.1a5.47,5.47,0,0,0,5.46-5.46V60.66a5.47,5.47,0,0,0-5.46-5.46Z" style="fill:#ebebeb"></path><ellipse cx="300.25" cy="171.1" rx="85.88" ry="63.11" transform="translate(-38.14 241.22) rotate(-41.38)" style="fill:#e6e6e6"></ellipse><ellipse cx="347.18" cy="226.48" rx="61" ry="44.83" transform="translate(-63.03 286.07) rotate(-41.38)" style="fill:#e6e6e6"></ellipse><ellipse cx="372.36" cy="161.05" rx="61" ry="44.83" transform="translate(-13.49 286.38) rotate(-41.38)" style="fill:#e6e6e6"></ellipse><ellipse cx="403.98" cy="207.15" rx="71.83" ry="52.78" transform="translate(-36.07 318.79) rotate(-41.38)" style="fill:#e6e6e6"></ellipse><polygon points="371.75 186.34 335.92 157.43 332.89 191.46 335.17 246.83 325.65 294.88 314.18 329.57 298.36 382.4 369.65 382.4 366.18 296.14 375.51 248.09 371.99 206.59 371.75 186.34" style="fill:#f5f5f5"></polygon><ellipse cx="360.22" cy="149.21" rx="58.81" ry="43.22" transform="translate(-8.7 275.39) rotate(-41.38)" style="fill:#e6e6e6"></ellipse><polygon points="347.19 366.1 336.06 382.4 346.2 382.4 347.19 366.1" style="fill:#f5f5f5"></polygon><path d="M361.35,250.23,398,213.36l7.18-12c1.32-2.2-2.1-4.79-3.85-2.91l-6.68,7.19-34.8,29.06Z" style="fill:#f5f5f5"></path><path d="M342.13,250.25l-36.3-39.67-6.69-15c-1.22-2.75,2.71-8.1,4.43-6l6.57,7.94,35,28.74Z" style="fill:#f5f5f5"></path><path d="M116.93,77.65a18.4,18.4,0,0,0-9.05,2.67c3.82-7.18.69-12.78-7.84-13-8.37-.18-19.15,4.89-25.84,11.78.28-3.59-2.33-6.06-7.32-6.17-7-.15-16.17,4.43-21.18,10.42L121,84.81C123.23,80.86,121.59,77.75,116.93,77.65Z" style="fill:#f0f0f0"></path><path d="M387.83,77.12a14.53,14.53,0,0,0-6.41,1.77c3.63-4.76,2.41-8.47-3.22-8.6s-13.45,3.25-18.93,7.81c.73-2.38-.62-4-3.91-4.09-4.61-.1-11.4,2.94-15.64,6.91l49.69,1C391.51,79.25,390.9,77.19,387.83,77.12Z" style="fill:#f5f5f5"></path><path d="M169.72,113.35a15.59,15.59,0,0,0-4.64.67c1.12-5.7-2.56-9.75-10.11-9.91-6.93-.15-15.39,3-22.24,7.83-1.09-2.11-3.61-3.43-7.38-3.51-4.67-.09-10.25,1.74-15.11,4.68a7.14,7.14,0,0,0-3.72-1c-3.9-.08-8.68,1.78-12.41,4.58l81.07,1.54C175.55,115.42,173.58,113.43,169.72,113.35Z" style="fill:#f5f5f5"></path><polygon points="109.11 289.98 105.45 289.98 47.84 289.98 44.18 289.98 47.31 314.6 50.97 314.6 108.58 314.6 112.23 314.6 109.11 289.98" style="fill:#f5f5f5"></polygon><polygon points="113.59 325.23 109.93 325.23 52.32 325.23 48.66 325.23 50.01 335.85 53.67 335.85 111.28 335.85 114.94 335.85 113.59 325.23" style="fill:#f5f5f5"></polygon><polygon points="128.52 342.85 111.2 342.85 67.25 342.85 49.93 342.85 50.43 347.12 67.75 347.12 111.7 347.12 129.02 347.12 128.52 342.85" style="fill:#f5f5f5"></polygon><polygon points="85.1 382.4 82.92 382.4 73.75 347.12 77.59 347.12 85.1 382.4" style="fill:#e6e6e6"></polygon><polygon points="134.85 382.4 132.68 382.4 123.51 347.12 127.35 347.12 134.85 382.4" style="fill:#e6e6e6"></polygon><polygon points="102.86 287.71 100.69 287.71 107.86 347.12 100.36 382.4 102.53 382.4 111.7 347.12 102.86 287.71" style="fill:#e6e6e6"></polygon><polygon points="53.6 287.71 51.42 287.71 58.1 347.12 50.6 382.4 52.77 382.4 61.94 347.12 53.6 287.71" style="fill:#e6e6e6"></polygon><polygon points="227.23 287.71 229.41 287.71 222.23 347.12 229.73 382.4 227.56 382.4 218.39 347.12 227.23 287.71" style="fill:#e6e6e6"></polygon><polygon points="276.49 287.71 278.67 287.71 271.99 347.12 279.49 382.4 277.32 382.4 268.15 347.12 276.49 287.71" style="fill:#e6e6e6"></polygon><polygon points="220.99 289.98 224.65 289.98 282.25 289.98 285.92 289.98 282.79 314.6 279.13 314.6 221.51 314.6 217.86 314.6 220.99 289.98" style="fill:#f5f5f5"></polygon><polygon points="216.5 325.23 220.16 325.23 277.77 325.23 281.43 325.23 280.08 335.85 276.42 335.85 218.81 335.85 215.16 335.85 216.5 325.23" style="fill:#f5f5f5"></polygon><polygon points="201.57 342.85 218.89 342.85 262.84 342.85 280.16 342.85 279.66 347.12 262.34 347.12 218.39 347.12 201.07 347.12 201.57 342.85" style="fill:#f5f5f5"></polygon><polygon points="245 382.4 247.17 382.4 256.34 347.12 252.5 347.12 245 382.4" style="fill:#e6e6e6"></polygon><polygon points="195.24 382.4 197.41 382.4 206.58 347.12 202.74 347.12 195.24 382.4" style="fill:#e6e6e6"></polygon><rect x="124.56" y="293" width="43" height="6.89" style="fill:#f0f0f0"></rect><rect x="167.56" y="293" width="43" height="6.89" style="fill:#e0e0e0"></rect><rect x="162.23" y="299.89" width="10.67" height="82.76" style="fill:#e0e0e0"></rect></g><g id="freepik--Shadow--inject-57"><ellipse id="freepik--path--inject-57" cx="250" cy="416.24" rx="193.89" ry="11.32" style="fill:#f5f5f5"></ellipse></g><g id="freepik--character-2--inject-57"><path d="M288.29,223.17c-2.62-5.42.08-12.17,3.86-14.17-1.4-2.33-.33-8.42,1.51-10,.42,1.17,3.34,4.18,3.34,4.18s-1.33-4.93,0-7.93c.58,2.67,13.08,5.06,15.75,10-.17-1.95,1-5.7,1-5.7s1.4,5.42,2.81,7.75,6.25,10,2.25,12.92c4.5,3.08,2.23,13-11.61,14.14A73.39,73.39,0,0,0,288.29,223.17Z" style="fill:#263238"></path><path d="M297.67,409.35c-1,.09-2.05,0-2.42-.4a.72.72,0,0,1-.06-.83,1,1,0,0,1,.56-.5c1.31-.49,4.26.86,4.39.92a.19.19,0,0,1,.11.19.2.2,0,0,1-.14.17A14.18,14.18,0,0,1,297.67,409.35Zm-1.42-1.45a1.27,1.27,0,0,0-.36.08.53.53,0,0,0-.35.3c-.12.25-.06.36,0,.42.42.49,2.45.32,3.93,0A8.85,8.85,0,0,0,296.25,407.9Z" style="fill:#2474FF"></path><path d="M300.08,408.9a.11.11,0,0,1-.08,0c-1-.34-3.09-1.91-3-2.83,0-.22.14-.5.66-.6a1.42,1.42,0,0,1,1.09.23c1.1.75,1.51,2.9,1.53,3a.19.19,0,0,1-.07.18A.18.18,0,0,1,300.08,408.9Zm-2.26-3.08-.11,0c-.34.06-.35.2-.36.25,0,.55,1.39,1.8,2.44,2.3A4.5,4.5,0,0,0,298.5,406,1,1,0,0,0,297.82,405.82Z" style="fill:#2474FF"></path><polygon points="309.8 412.25 301.76 412.98 299.27 394.42 307.31 393.69 309.8 412.25" style="fill:#ff8b7b"></polygon><path d="M300.83,407.7l8.78-.79a.71.71,0,0,1,.74.49l2.23,7a1.18,1.18,0,0,1-1,1.54c-3.17.23-6,.31-9.94.67-4.65.42-3.42.87-8.88,1.44-3.29.34-4.23-3.35-2.85-3.66,6.32-1.38,6.81-3.37,9.07-5.88A2.84,2.84,0,0,1,300.83,407.7Z" style="fill:#263238"></path><path d="M283.26,262l-.62,0-.5-.05-.94-.1c-.61-.08-1.2-.18-1.79-.28-1.17-.21-2.32-.47-3.45-.76a53.84,53.84,0,0,1-6.57-2.19,55.92,55.92,0,0,1-6.2-3c-1-.53-2-1.13-2.95-1.72s-1.85-1.23-2.87-1.92a18.76,18.76,0,0,1-5.53-6.47,36.6,36.6,0,0,1-2.74-6.54,55.69,55.69,0,0,1-1.61-6.51,54.42,54.42,0,0,1-.79-6.59l5.94-1.2a115,115,0,0,0,4.95,10.76,35.8,35.8,0,0,0,2.9,4.59,9.33,9.33,0,0,0,2.86,2.68c.76.39,1.66.87,2.49,1.28s1.69.84,2.57,1.2,1.73.75,2.61,1.08,1.76.65,2.64,1c1.77.59,3.55,1.13,5.34,1.56.88.23,1.78.4,2.65.59l1.29.23,1.05.16Z" style="fill:#ff8b7b"></path><path d="M292.61,263.91C284,269.42,270.67,261,270.67,261l1.61-14.69s11.89-2.67,21.38.44C302.94,249.79,299.69,259.39,292.61,263.91Z" style="fill:#263238"></path><path d="M252.73,229.39l2.31-6.22-8.81-1.89s-1.62,4.95,1.7,8.63Z" style="fill:#ff8b7b"></path><polygon points="254.33 216.24 246.68 217.08 246.23 221.28 255.04 223.16 254.33 216.24" style="fill:#ff8b7b"></polygon><path d="M277.43,255.6c-.44,7.63,0,23.32,5.61,52.13l43-3.89c-.27-6.09-5.4-24-3.47-51.43a7.44,7.44,0,0,0-7.12-8c-2.12-.07-4.47-.09-6.76,0a159.71,159.71,0,0,0-18.29,1.65c-2.33.43-4.59,1-6.53,1.54A8.86,8.86,0,0,0,277.43,255.6Z" style="fill:#263238"></path><path d="M303.75,230.71c0,5.66.91,12.16,4.41,14.69a66.6,66.6,0,0,1-16,10.11c-6.22-4.39-3.35-8-3.35-8,5.43-3,5.05-7.11,3.35-11.54l8.09-7.12C301.58,227.49,303.74,228.63,303.75,230.71Z" style="fill:#ff8b7b"></path><path d="M303.75,230.71c0-2.08-2.16-3.22-3.51-1.87L292.15,236a12.11,12.11,0,0,1,1,6.18,11.93,11.93,0,0,0,5.52-1.15,12.23,12.23,0,0,0,5.39-4.76A42.44,42.44,0,0,1,303.75,230.71Z" style="opacity:0.2"></path><path d="M313.11,223.79c-2.87,7.53-4.11,12.09-9.68,14.72-8.37,3.94-18-2.82-17.72-11.12.24-7.48,4.88-18.54,14.28-19S316,216.26,313.11,223.79Z" style="fill:#ff8b7b"></path><path d="M308.16,215.22c-5.51.58-1,12.06,1.66,13.78s7.58-2.5,8-5S310.81,214.94,308.16,215.22Z" style="fill:#263238"></path><path d="M292,226.9h0a6.42,6.42,0,0,0,5.9.23.22.22,0,0,0-.21-.39,6.07,6.07,0,0,1-5.47-.24.24.24,0,0,0-.31.09A.23.23,0,0,0,292,226.9Z" style="fill:#263238"></path><path d="M298.8,219.86c-.34.63-.94.95-1.35.73s-.47-.9-.13-1.53.95-.95,1.35-.73S299.14,219.24,298.8,219.86Z" style="fill:#263238"></path><path d="M291.31,217.67c-.34.63-.94,1-1.35.73s-.47-.9-.13-1.53.95-1,1.36-.73S291.65,217.05,291.31,217.67Z" style="fill:#263238"></path><path d="M302.38,218.6a.41.41,0,0,1-.28-.34,3.29,3.29,0,0,0-1.69-2.49.43.43,0,0,1-.21-.56.41.41,0,0,1,.56-.2,4.14,4.14,0,0,1,2.16,3.13.43.43,0,0,1-.54.46Z" style="fill:#263238"></path><path d="M289.75,213.43a.37.37,0,0,1-.2-.15.41.41,0,0,1,.09-.58,4.14,4.14,0,0,1,3.76-.64.42.42,0,0,1-.31.78h0a3.28,3.28,0,0,0-3,.54A.43.43,0,0,1,289.75,213.43Z" style="fill:#263238"></path><path d="M292.71,219a21.82,21.82,0,0,1-4.83,3.5,3.51,3.51,0,0,0,2.41,1.72Z" style="fill:#ff5652"></path><path d="M312.63,231.59a6.51,6.51,0,0,1-4.53,1.61c-2.05-.15-2.06-2.32-.64-4,1.27-1.55,3.88-3.34,5.53-2.35S314.27,230.2,312.63,231.59Z" style="fill:#ff8b7b"></path><polygon points="299.27 394.43 300.67 404.86 308.72 404.13 307.32 393.7 299.27 394.43" style="opacity:0.2"></polygon><path d="M283,307.73a219,219,0,0,0,1.06,44.48c3.22,25.43,12.62,48.13,12.62,48.13l13.4-3.5s-3.13-19.09-4.79-44.2c-1.81-27.38,6-47.47,6-47.47Z" style="fill:#2474FF"></path><path d="M306.64,318.57c-7,2.2-4.34,14.06-1.51,22a128.92,128.92,0,0,1,2.53-22Z" style="opacity:0.30000000000000004"></path><path d="M354.13,392.45c-.72.75-1.51,1.38-2.08,1.3a.74.74,0,0,1-.59-.59,1,1,0,0,1,.09-.75c.67-1.22,3.78-2.15,3.92-2.19a.19.19,0,0,1,.21.29A13.61,13.61,0,0,1,354.13,392.45Zm-2-.15a1.17,1.17,0,0,0-.22.29.59.59,0,0,0-.07.46c.08.26.2.31.28.32.64.09,2.06-1.38,2.95-2.61A8.48,8.48,0,0,0,352.11,392.3Z" style="fill:#2474FF"></path><path d="M355.66,390.54l-.07,0c-1,.4-3.59.59-4.14-.15-.13-.17-.22-.47.1-.88a1.4,1.4,0,0,1,1-.54c1.32-.16,3.05,1.19,3.12,1.24a.21.21,0,0,1,.07.18A.37.37,0,0,1,355.66,390.54Zm-3.73-.84-.08.08c-.21.28-.12.39-.1.42.34.44,2.24.45,3.36.14a4.54,4.54,0,0,0-2.54-.95A1,1,0,0,0,351.93,389.7Z" style="fill:#2474FF"></path><polygon points="365.19 386.67 359.6 392.5 345.54 380.15 351.12 374.31 365.19 386.67" style="fill:#ff8b7b"></polygon><path d="M355.44,389.14l6.1-6.37a.7.7,0,0,1,.87-.12l6.29,3.82a1.17,1.17,0,0,1,.23,1.83c-2.24,2.26-5.55,5.45-8.32,8.34-3.23,3.38-.93,1.34-4.72,5.3-2.3,2.4-5.35.74-4.61-.47,3.37-5.52,3.22-7.12,3.27-10.49A2.78,2.78,0,0,1,355.44,389.14Z" style="fill:#263238"></path><polygon points="345.54 380.15 353.45 387.1 359.03 381.26 351.13 374.31 345.54 380.15" style="opacity:0.2"></polygon><path d="M298.3,306.35s5.91,23.71,17.15,44.53c12.31,22.81,32.16,35.81,32.16,35.81l9.52-10.27s-16.34-16.15-21.21-33.37c-7.43-26.28-9.87-39.21-9.87-39.21Z" style="fill:#2474FF"></path><path d="M344,386.17c0,.05,4.81,3.11,4.81,3.11l10.83-12.63L356.06,373Z" style="fill:#263238"></path><path d="M294.13,397.93c-.06,0,1.59,5.51,1.59,5.51l16.46-2.4-.29-5.09Z" style="fill:#263238"></path><path d="M311.13,283.36c-2.51-1.31-3-4.35-2.13-5.71-1.39-1.9-2.59-5.5,1.25-6.88-.76-1.87,2.19-4.1.56-5.83,5.2.58,8.7,3.58,8.2,6.69,1.9.56,2.05,3.47.75,4.94,1.42,1.26,1.16,3.92-.44,5.49C316.56,282.59,311.13,283.36,311.13,283.36Z" style="fill:#2474FF"></path><path d="M311.13,283.36c-2.51-1.31-3-4.35-2.13-5.71-1.39-1.9-2.59-5.5,1.25-6.88-.76-1.87,2.19-4.1.56-5.83,5.2.58,8.7,3.58,8.2,6.69,1.9.56,2.05,3.47.75,4.94,1.42,1.26,1.16,3.92-.44,5.49C316.56,282.59,311.13,283.36,311.13,283.36Z" style="fill:#fff;opacity:0.5"></path><polygon points="320.74 280.69 318.12 300.99 309.3 282.52 320.74 280.69" style="fill:#2474FF"></polygon><path d="M324.74,250.85c.9.92,1.62,1.7,2.39,2.57s1.48,1.71,2.19,2.58c1.43,1.74,2.81,3.51,4.12,5.33s2.6,3.66,3.8,5.55,2.38,3.81,3.5,5.76l.21.36.38.69a10.52,10.52,0,0,1,.72,1.84,8.7,8.7,0,0,1,.06,4.24,9.38,9.38,0,0,1-1.46,3.21,12.17,12.17,0,0,1-1.78,2,17.26,17.26,0,0,1-3.49,2.5,32.63,32.63,0,0,1-3.37,1.65,49.67,49.67,0,0,1-6.65,2.19,53,53,0,0,1-6.73,1.31L317,286.82a104.33,104.33,0,0,0,10.75-5.88,23.73,23.73,0,0,0,2.23-1.61,11.39,11.39,0,0,0,1.56-1.54c.35-.43.3-.78.07-.24a2,2,0,0,0-.05,1,2.45,2.45,0,0,0,.09.35.08.08,0,0,0,0,0v0l-.06-.08-.23-.31q-3.66-5.06-7.58-9.92c-1.31-1.61-2.63-3.22-4-4.8l-2-2.36-1.95-2.24Z" style="fill:#ff8b7b"></path><path d="M322,286.51l-6.56-1-.11,9s5.17.61,8.13-3.37Z" style="fill:#ff8b7b"></path><path d="M309.93,290l1.47,3.22a2.41,2.41,0,0,0,2.49,1.41l1.45-.18.11-9-4,1.24A2.42,2.42,0,0,0,309.93,290Z" style="fill:#ff8b7b"></path><path d="M316.86,244.58c10.23,0,16.32,14,16.32,14l-9,12.93s-4-1.59-10.32-9.32C307.72,254.68,308.46,244.58,316.86,244.58Z" style="fill:#263238"></path><path d="M315.89,219.8c.74,4.9-22.9-10.1-21.28-13.33C310.1,204.24,314.94,213.52,315.89,219.8Z" style="fill:#263238"></path></g><g id="freepik--character-1--inject-57"><polygon points="173.28 402.19 164.4 400.9 167.24 381.09 176.12 382.39 173.28 402.19" style="fill:#ffc3bd"></polygon><polygon points="242.42 405.23 233.61 405.23 231.42 384.84 240.22 384.84 242.42 405.23" style="fill:#ffc3bd"></polygon><path d="M232.89,404.21h10.73a.77.77,0,0,1,.75.6l1.74,7.83a1.29,1.29,0,0,1-1.29,1.56c-3.45-.06-6-.26-10.32-.26-2.68,0-10.75.28-14.45.28s-4.17-3.66-2.66-4c6.78-1.48,11.9-3.53,14.07-5.48A2.14,2.14,0,0,1,232.89,404.21Z" style="fill:#263238"></path><path d="M163.81,400.28l9.52,1.36a.77.77,0,0,1,.66.7l.61,8a1.28,1.28,0,0,1-1.47,1.38c-3.43-.55-8.36-1.47-12.68-2.08A125.25,125.25,0,0,1,147.77,407c-3.52-.82-3.67-4.61-2.12-4.59,7,.09,9.56,1.07,16-1.72A4,4,0,0,1,163.81,400.28Z" style="fill:#263238"></path><path d="M200.54,135.35c-.46,6.09-1.15,12-2.06,18-.44,3-1,6-1.53,9-.28,1.49-.57,3-.9,4.48l-.5,2.25-.25,1.12-.09.37-.16.62a11.71,11.71,0,0,1-.47,1.32,9.26,9.26,0,0,1-1.9,2.75,8.82,8.82,0,0,1-2.86,1.87,10.34,10.34,0,0,1-4.82.63,20.14,20.14,0,0,1-5.92-1.62,52.24,52.24,0,0,1-8.57-4.86,106,106,0,0,1-14.27-11.76l4.08-5.21c5,2.91,10.16,5.87,15.22,8.36a51.24,51.24,0,0,0,7.42,3.06,8.52,8.52,0,0,0,2.72.48c.2,0,.18-.15-.43.05a3.08,3.08,0,0,0-1.68,1.54,1.14,1.14,0,0,0-.12.26.11.11,0,0,0,0,.08v0l0-.14.15-1.07.28-2.16.54-4.33,1-8.71,1.85-17.48Z" style="fill:#ffc3bd"></path><path d="M193.42,126.28c-8.32,1.28-12.24,30.4-12.24,30.4L198.31,161s2.68-7.57,6.8-17.88C207.69,136.61,203.79,124.69,193.42,126.28Z" style="fill:#2474FF"></path><path d="M165.05,157.25,155,150.91l-1.24,10.14a9.44,9.44,0,0,0,7.71.35Z" style="fill:#ffc3bd"></path><path d="M148.52,150.23l.06,3.41a7.86,7.86,0,0,0,3.8,6.58l1.38.83L155,150.91l-4.58-2A1.36,1.36,0,0,0,148.52,150.23Z" style="fill:#ffc3bd"></path><path d="M150.88,146.32c-2.27-1.69-2.27-4.77-1.2-6-1.07-2.1-1.7-5.84,2.32-6.6-.47-2,2.8-3.7,1.47-5.66,5,1.38,8,4.9,7,7.89,1.79.85,1.47,3.74,0,5,1.2,1.47.53,4.06-1.3,5.35C156.36,146.41,150.88,146.32,150.88,146.32Z" style="fill:#2474FF"></path><path d="M150.88,146.32c-2.27-1.69-2.27-4.77-1.2-6-1.07-2.1-1.7-5.84,2.32-6.6-.47-2,2.8-3.7,1.47-5.66,5,1.38,8,4.9,7,7.89,1.79.85,1.47,3.74,0,5,1.2,1.47.53,4.06-1.3,5.35C156.36,146.41,150.88,146.32,150.88,146.32Z" style="fill:#fff;opacity:0.5"></path><polygon points="160.79 145.2 155 164.84 149.21 145.2 160.79 145.2" style="fill:#2474FF"></polygon><path d="M165.05,157.25c-2.55-1.29-5.2-8.66-5.24-9.93a2.46,2.46,0,0,0-2,2.57c.08,1.25.45,4.62.45,4.62s-1.39,3.53-.52,6.32S165.05,157.25,165.05,157.25Z" style="fill:#ffc3bd"></path><polygon points="167.24 381.09 165.78 391.3 174.66 392.6 176.12 382.39 167.24 381.09" style="opacity:0.2"></polygon><polygon points="240.23 384.84 231.42 384.84 232.55 395.35 241.36 395.35 240.23 384.84" style="opacity:0.2"></polygon><path d="M242.39,128.36a197,197,0,0,0-5,29.07c-.7,6.84-1.07,13.36-1.26,19.27-.45,13.85.06,24.4-.28,28l-47-2.33c-1.4-69.2,4.29-76,4.29-76a90.55,90.55,0,0,1,11.21-1.62c.8-.07,1.61-.11,2.43-.14a174.55,174.55,0,0,1,20,1c1.26.13,2.53.29,3.77.46C236.82,126.94,242.39,128.36,242.39,128.36Z" style="fill:#2474FF"></path><path d="M230.78,141.27A37,37,0,0,0,237,161.5c.1-1.34.23-2.7.37-4.07.52-5.13,1.22-10.46,2.18-15.84Z" style="opacity:0.2"></path><path d="M225.87,103c-1.58,6.37-3.43,18.1.86,22.61A20,20,0,0,1,211,131c-5.53-.39-5.61-4.28-4.27-6.36,7.26-1.36,6.85-8.9,5.84-14Z" style="fill:#ffc3bd"></path><path d="M224.55,109.8l-7.75,5c.52,3.16,4.76,4.74,7.46,4.29A38.26,38.26,0,0,1,224.55,109.8Z" style="opacity:0.2"></path><path d="M237.06,89.33c2,2.77-.07,12.17-4,12.57S234.61,85.89,237.06,89.33Z" style="fill:#263238"></path><path d="M213,111.14c-2.74.28-6.46-5.48-4.15-8.67S216.44,110.8,213,111.14Z" style="fill:#263238"></path><path d="M212,93.17c-1.4,8.63-2.66,13.6.65,18.94,5,8,16.36,6.51,20.31-1.52,3.56-7.23,5.26-20.12-2.3-25.39A11.93,11.93,0,0,0,212,93.17Z" style="fill:#ffc3bd"></path><path d="M232.67,77.22a7.88,7.88,0,0,0-2.17,1.67,29.17,29.17,0,0,0-14.12-2.72,10.38,10.38,0,0,0,1.93,2.72,42.41,42.41,0,0,0-11.7-.28,9.91,9.91,0,0,0,1.4,6.2c-4.87.94-7.93,13,2.58,19.82,5.08-1.2,6.83-9.78,5.79-13,1.7.25,10.54,1.38,10.87-1.54,1.83,2.5,7.43,4.65,10,1.13C240.22,88.22,240.22,81.33,232.67,77.22Z" style="fill:#263238"></path><path d="M225,108.64h0a6.44,6.44,0,0,1-4.6-3.71.23.23,0,0,1,.14-.29.22.22,0,0,1,.28.13,6.09,6.09,0,0,0,4.28,3.43.23.23,0,1,1-.1.44Z" style="fill:#263238"></path><path d="M206.07,101.68a8.29,8.29,0,0,0,4.24,4.72c2.64,1.24,4.44-1,4.11-3.74-.3-2.47-2-6.09-4.87-6.18S205.2,99.13,206.07,101.68Z" style="fill:#ffc3bd"></path><path d="M188.8,202.35S175,274.59,172,301.3c-3.13,27.77-9.07,87.56-9.07,87.56L177.67,391s13.76-53.4,19.62-84.33l19.79-102.89Z" style="fill:#263238"></path><path d="M210.21,221c-6.54,8.09-9.34,31.1-5.68,48.06l8.24-42.82Z" style="opacity:0.2"></path><path d="M205.49,203.18s4.87,75.54,8.58,101.07c4.07,28,14.41,89.07,14.41,89.07h16.13s-4-58.33-6.22-86c-2.5-31.28-2.55-102.68-2.55-102.68Z" style="fill:#263238"></path><polygon points="226.55 393.67 245.54 393.67 245.54 387.99 224.31 387.62 226.55 393.67" style="fill:#2474FF"></polygon><polygon points="161.94 389.07 178.6 391.45 180.21 385.61 161.22 382.86 161.94 389.07" style="fill:#2474FF"></polygon><path d="M224.4,98.7c-.16.69.08,1.33.54,1.44s.94-.38,1.1-1.07-.08-1.34-.54-1.44S224.56,98,224.4,98.7Z" style="fill:#263238"></path><path d="M232.23,100.47c-.16.69.08,1.34.54,1.44s.94-.38,1.1-1.07-.08-1.34-.54-1.44S232.39,99.78,232.23,100.47Z" style="fill:#263238"></path><path d="M229.66,100a25.37,25.37,0,0,0,2,6.68c-1.48.86-3.5-.33-3.5-.33Z" style="fill:#ed847e"></path><path d="M222.54,95.39a.4.4,0,0,0,.43-.07,3.35,3.35,0,0,1,2.92-.77.41.41,0,0,0,.52-.28.42.42,0,0,0-.28-.52,4.17,4.17,0,0,0-3.69.93.42.42,0,0,0-.05.59A.44.44,0,0,0,222.54,95.39Z" style="fill:#263238"></path><path d="M236.2,98.31a.43.43,0,0,0,.25,0,.42.42,0,0,0,.32-.5,4.16,4.16,0,0,0-2.41-3,.42.42,0,0,0-.53.25.43.43,0,0,0,.24.54h0A3.29,3.29,0,0,1,236,98,.45.45,0,0,0,236.2,98.31Z" style="fill:#263238"></path><path d="M230,405.75a2.71,2.71,0,0,1-1.7-.45,1.25,1.25,0,0,1-.43-1.1.63.63,0,0,1,.36-.59c1-.51,3.81,1.24,4.13,1.44a.23.23,0,0,1,.1.21.23.23,0,0,1-.16.17A10.21,10.21,0,0,1,230,405.75Zm-1.31-1.83a.54.54,0,0,0-.27.06.25.25,0,0,0-.14.24.87.87,0,0,0,.29.76c.48.4,1.63.46,3.12.16A8.35,8.35,0,0,0,228.67,403.92Z" style="fill:#2474FF"></path><path d="M232.23,405.44a.19.19,0,0,1-.1,0c-.91-.49-2.67-2.42-2.49-3.4a.69.69,0,0,1,.67-.55,1.14,1.14,0,0,1,.89.27c1,.83,1.23,3.37,1.24,3.48a.21.21,0,0,1-.1.19A.15.15,0,0,1,232.23,405.44Zm-1.78-3.57h-.09c-.27,0-.3.16-.31.21-.11.58,1,2,1.92,2.73a5,5,0,0,0-1-2.76A.76.76,0,0,0,230.45,401.87Z" style="fill:#2474FF"></path><path d="M162.79,401.36h0c-1.45.08-4,.06-4.83-.92a1.17,1.17,0,0,1-.24-1.06.67.67,0,0,1,.42-.5c1.13-.42,4.39,1.84,4.76,2.1a.2.2,0,0,1,.07.23A.23.23,0,0,1,162.79,401.36Zm-4.48-2.11-.05,0a.29.29,0,0,0-.17.2.75.75,0,0,0,.16.7c.47.55,1.89.84,3.86.8C160.81,400.1,159,399.09,158.31,399.25Z" style="fill:#2474FF"></path><path d="M162.79,401.36a.23.23,0,0,1-.16,0c-1-.62-2.8-2.81-2.49-3.77.07-.23.27-.49.85-.47a1.53,1.53,0,0,1,1.09.52c1,1.07.88,3.45.87,3.55a.2.2,0,0,1-.11.18Zm-2.06-3.83c-.16,0-.19.12-.2.15-.18.58,1,2.27,2,3.07a4.89,4.89,0,0,0-.77-2.86,1.09,1.09,0,0,0-.8-.38A.82.82,0,0,0,160.73,397.53Z" style="fill:#2474FF"></path><path d="M244.16,134c1.71,2.84,3.14,5.6,4.62,8.44s2.83,5.7,4.12,8.63,2.53,5.89,3.62,8.95c.57,1.5,1.08,3.07,1.6,4.61s1,3.14,1.36,4.78l.31,1.22.15.61.17.8a25.24,25.24,0,0,1,.39,3,46.12,46.12,0,0,1,0,5.26,93.81,93.81,0,0,1-1.07,9.72,143.84,143.84,0,0,1-4.26,18.53l-6.51-1.16c.22-6.1.55-12.26.63-18.27.06-3,0-6-.12-8.82a36.08,36.08,0,0,0-.42-4,12.89,12.89,0,0,0-.34-1.58l-.11-.33-.17-.51-.34-1a149.52,149.52,0,0,0-6.92-16.22c-1.3-2.69-2.67-5.37-4.05-8s-2.84-5.37-4.21-7.9Z" style="fill:#ffc3bd"></path><path d="M242.39,128.36c8.28,1.5,12.53,24.41,12.53,24.41l-12.53,10.64a137.08,137.08,0,0,1-11.57-19.1C225.68,133.63,232.35,126.54,242.39,128.36Z" style="fill:#2474FF"></path><path d="M249.56,205.28l-5.56,7L254.92,215s3.41-7-.1-9.24Z" style="fill:#ffc3bd"></path><polygon points="243.9 219.64 253.03 221.43 254.92 214.97 244 212.28 243.9 219.64" style="fill:#ffc3bd"></polygon></g></svg>