<svg id="visual" viewBox="0 0 960 540" width="960" height="540" xmlns="http://www.w3.org/2000/svg" xmlns:xlink="http://www.w3.org/1999/xlink" version="1.1"><rect x="0" y="0" width="960" height="540" fill="#ffb1a9"></rect><defs><linearGradient id="grad1_0" x1="43.8%" y1="100%" x2="100%" y2="0%"><stop offset="14.444444444444446%" stop-color="#ff6b5d" stop-opacity="1"></stop><stop offset="85.55555555555554%" stop-color="#ff6b5d" stop-opacity="1"></stop></linearGradient></defs><defs><linearGradient id="grad1_1" x1="43.8%" y1="100%" x2="100%" y2="0%"><stop offset="14.444444444444446%" stop-color="#ff6b5d" stop-opacity="1"></stop><stop offset="85.55555555555554%" stop-color="#ffb1a9" stop-opacity="1"></stop></linearGradient></defs><defs><linearGradient id="grad2_0" x1="0%" y1="100%" x2="56.3%" y2="0%"><stop offset="14.444444444444446%" stop-color="#ff6b5d" stop-opacity="1"></stop><stop offset="85.55555555555554%" stop-color="#ff6b5d" stop-opacity="1"></stop></linearGradient></defs><defs><linearGradient id="grad2_1" x1="0%" y1="100%" x2="56.3%" y2="0%"><stop offset="14.444444444444446%" stop-color="#ffb1a9" stop-opacity="1"></stop><stop offset="85.55555555555554%" stop-color="#ff6b5d" stop-opacity="1"></stop></linearGradient></defs><g transform="translate(960, 540)"><path d="M-405 0C-368.7 -39.4 -332.3 -78.8 -318.7 -132C-305.2 -185.2 -314.4 -252.2 -286.4 -286.4C-258.4 -320.6 -193.2 -322 -139.3 -336.3C-85.4 -350.6 -42.7 -377.8 0 -405L0 0Z" fill="#ff8f83"></path><path d="M-202.5 0C-184.3 -19.7 -166.2 -39.4 -159.4 -66C-152.6 -92.6 -157.2 -126.1 -143.2 -143.2C-129.2 -160.3 -96.6 -161 -69.6 -168.1C-42.7 -175.3 -21.3 -188.9 0 -202.5L0 0Z" fill="#ff6b5d"></path></g><g transform="translate(0, 0)"><path d="M405 0C378.9 44.3 352.8 88.7 337.2 139.7C321.6 190.7 316.6 248.3 286.4 286.4C256.2 324.4 200.8 342.9 148.9 359.4C96.9 375.9 48.5 390.4 0 405L0 0Z" fill="#ff8f83"></path><path d="M202.5 0C189.4 22.2 176.4 44.3 168.6 69.8C160.8 95.3 158.3 124.2 143.2 143.2C128.1 162.2 100.4 171.4 74.4 179.7C48.5 187.9 24.2 195.2 0 202.5L0 0Z" fill="#ff6b5d"></path></g></svg>